<?xml version="1.0" encoding="utf-8" standalone="no"?>
<!DOCTYPE svg PUBLIC "-//W3C//DTD SVG 1.1//EN"
  "http://www.w3.org/Graphics/SVG/1.1/DTD/svg11.dtd">
<svg xmlns:xlink="http://www.w3.org/1999/xlink" width="790.44pt" height="401.373345pt" viewBox="0 0 790.44 401.373345" xmlns="http://www.w3.org/2000/svg" version="1.1">
 <metadata>
  <rdf:RDF xmlns:dc="http://purl.org/dc/elements/1.1/" xmlns:cc="http://creativecommons.org/ns#" xmlns:rdf="http://www.w3.org/1999/02/22-rdf-syntax-ns#">
   <cc:Work>
    <dc:type rdf:resource="http://purl.org/dc/dcmitype/StillImage"/>
    <dc:date>2026-07-02T22:55:55.961449</dc:date>
    <dc:format>image/svg+xml</dc:format>
    <dc:creator>
     <cc:Agent>
      <dc:title>Matplotlib v3.10.7, https://matplotlib.org/</dc:title>
     </cc:Agent>
    </dc:creator>
   </cc:Work>
  </rdf:RDF>
 </metadata>
 <defs>
  <style type="text/css">*{stroke-linejoin: round; stroke-linecap: butt}</style>
 </defs>
 <g id="figure_1">
  <g id="patch_1">
   <path d="M 0 401.373345 
L 790.44 401.373345 
L 790.44 0 
L 0 0 
z
" style="fill: #ffffff"/>
  </g>
  <g id="axes_1">
   <g id="patch_2">
    <path d="M 29.2 360.158658 
L 783.24 360.158658 
L 783.24 25.509698 
L 29.2 25.509698 
z
" style="fill: #ffffff"/>
   </g>
   <g id="matplotlib.axis_1">
    <g id="xtick_1">
     <g id="line2d_1">
      <path d="M 139.640202 360.158658 
L 139.640202 25.509698 
" clip-path="url(#pf0e414eb36)" style="fill: none; stroke: #d9dee7; stroke-opacity: 0.55; stroke-width: 0.8; stroke-linecap: square"/>
     </g>
     <g id="line2d_2">
      <defs>
       <path id="m947e24f30f" d="M 0 0 
L 0 3.5 
" style="stroke: #202a35; stroke-width: 1.2"/>
      </defs>
      <g>
       <use xlink:href="#m947e24f30f" x="139.640202" y="360.158658" style="fill: #202a35; stroke: #202a35; stroke-width: 1.2"/>
      </g>
     </g>
     <g id="text_1">
      <text style="font-weight: 700; font-size: 12px; font-family: 'Times New Roman', 'Times', 'DejaVu Serif', serif; text-anchor: middle; fill: #202a35" x="139.640202" y="375.104908" transform="rotate(-0 139.640202 375.104908)">20</text>
     </g>
    </g>
    <g id="xtick_2">
     <g id="line2d_3">
      <path d="M 291.971515 360.158658 
L 291.971515 25.509698 
" clip-path="url(#pf0e414eb36)" style="fill: none; stroke: #d9dee7; stroke-opacity: 0.55; stroke-width: 0.8; stroke-linecap: square"/>
     </g>
     <g id="line2d_4">
      <g>
       <use xlink:href="#m947e24f30f" x="291.971515" y="360.158658" style="fill: #202a35; stroke: #202a35; stroke-width: 1.2"/>
      </g>
     </g>
     <g id="text_2">
      <text style="font-weight: 700; font-size: 12px; font-family: 'Times New Roman', 'Times', 'DejaVu Serif', serif; text-anchor: middle; fill: #202a35" x="291.971515" y="375.104908" transform="rotate(-0 291.971515 375.104908)">40</text>
     </g>
    </g>
    <g id="xtick_3">
     <g id="line2d_5">
      <path d="M 444.302828 360.158658 
L 444.302828 25.509698 
" clip-path="url(#pf0e414eb36)" style="fill: none; stroke: #d9dee7; stroke-opacity: 0.55; stroke-width: 0.8; stroke-linecap: square"/>
     </g>
     <g id="line2d_6">
      <g>
       <use xlink:href="#m947e24f30f" x="444.302828" y="360.158658" style="fill: #202a35; stroke: #202a35; stroke-width: 1.2"/>
      </g>
     </g>
     <g id="text_3">
      <text style="font-weight: 700; font-size: 12px; font-family: 'Times New Roman', 'Times', 'DejaVu Serif', serif; text-anchor: middle; fill: #202a35" x="444.302828" y="375.104908" transform="rotate(-0 444.302828 375.104908)">60</text>
     </g>
    </g>
    <g id="xtick_4">
     <g id="line2d_7">
      <path d="M 596.634141 360.158658 
L 596.634141 25.509698 
" clip-path="url(#pf0e414eb36)" style="fill: none; stroke: #d9dee7; stroke-opacity: 0.55; stroke-width: 0.8; stroke-linecap: square"/>
     </g>
     <g id="line2d_8">
      <g>
       <use xlink:href="#m947e24f30f" x="596.634141" y="360.158658" style="fill: #202a35; stroke: #202a35; stroke-width: 1.2"/>
      </g>
     </g>
     <g id="text_4">
      <text style="font-weight: 700; font-size: 12px; font-family: 'Times New Roman', 'Times', 'DejaVu Serif', serif; text-anchor: middle; fill: #202a35" x="596.634141" y="375.104908" transform="rotate(-0 596.634141 375.104908)">80</text>
     </g>
    </g>
    <g id="xtick_5">
     <g id="line2d_9">
      <path d="M 748.965455 360.158658 
L 748.965455 25.509698 
" clip-path="url(#pf0e414eb36)" style="fill: none; stroke: #d9dee7; stroke-opacity: 0.55; stroke-width: 0.8; stroke-linecap: square"/>
     </g>
     <g id="line2d_10">
      <g>
       <use xlink:href="#m947e24f30f" x="748.965455" y="360.158658" style="fill: #202a35; stroke: #202a35; stroke-width: 1.2"/>
      </g>
     </g>
     <g id="text_5">
      <text style="font-weight: 700; font-size: 12px; font-family: 'Times New Roman', 'Times', 'DejaVu Serif', serif; text-anchor: middle; fill: #202a35" x="748.965455" y="375.104908" transform="rotate(-0 748.965455 375.104908)">100</text>
     </g>
    </g>
    <g id="text_6">
     <text style="font-weight: 700; font-size: 14px; font-family: 'Times New Roman', 'Times', 'DejaVu Serif', serif; text-anchor: middle" x="406.22" y="391.152408" transform="rotate(-0 406.22 391.152408)">AC-call budget (%)</text>
    </g>
   </g>
   <g id="matplotlib.axis_2">
    <g id="ytick_1">
     <g id="line2d_11">
      <path d="M 29.2 360.158658 
L 783.24 360.158658 
" clip-path="url(#pf0e414eb36)" style="fill: none; stroke: #d9dee7; stroke-opacity: 0.55; stroke-width: 0.8; stroke-linecap: square"/>
     </g>
     <g id="line2d_12">
      <defs>
       <path id="me16ba08157" d="M 0 0 
L -3.5 0 
" style="stroke: #202a35; stroke-width: 1.2"/>
      </defs>
      <g>
       <use xlink:href="#me16ba08157" x="29.2" y="360.158658" style="fill: #202a35; stroke: #202a35; stroke-width: 1.2"/>
      </g>
     </g>
     <g id="text_7">
      <text style="font-weight: 700; font-size: 12px; font-family: 'Times New Roman', 'Times', 'DejaVu Serif', serif; text-anchor: end; fill: #202a35" x="22.2" y="364.131783" transform="rotate(-0 22.2 364.131783)">0.0</text>
     </g>
    </g>
    <g id="ytick_2">
     <g id="line2d_13">
      <path d="M 29.2 296.415999 
L 783.24 296.415999 
" clip-path="url(#pf0e414eb36)" style="fill: none; stroke: #d9dee7; stroke-opacity: 0.55; stroke-width: 0.8; stroke-linecap: square"/>
     </g>
     <g id="line2d_14">
      <g>
       <use xlink:href="#me16ba08157" x="29.2" y="296.415999" style="fill: #202a35; stroke: #202a35; stroke-width: 1.2"/>
      </g>
     </g>
     <g id="text_8">
      <text style="font-weight: 700; font-size: 12px; font-family: 'Times New Roman', 'Times', 'DejaVu Serif', serif; text-anchor: end; fill: #202a35" x="22.2" y="300.389124" transform="rotate(-0 22.2 300.389124)">0.2</text>
     </g>
    </g>
    <g id="ytick_3">
     <g id="line2d_15">
      <path d="M 29.2 232.67334 
L 783.24 232.67334 
" clip-path="url(#pf0e414eb36)" style="fill: none; stroke: #d9dee7; stroke-opacity: 0.55; stroke-width: 0.8; stroke-linecap: square"/>
     </g>
     <g id="line2d_16">
      <g>
       <use xlink:href="#me16ba08157" x="29.2" y="232.67334" style="fill: #202a35; stroke: #202a35; stroke-width: 1.2"/>
      </g>
     </g>
     <g id="text_9">
      <text style="font-weight: 700; font-size: 12px; font-family: 'Times New Roman', 'Times', 'DejaVu Serif', serif; text-anchor: end; fill: #202a35" x="22.2" y="236.646465" transform="rotate(-0 22.2 236.646465)">0.4</text>
     </g>
    </g>
    <g id="ytick_4">
     <g id="line2d_17">
      <path d="M 29.2 168.930681 
L 783.24 168.930681 
" clip-path="url(#pf0e414eb36)" style="fill: none; stroke: #d9dee7; stroke-opacity: 0.55; stroke-width: 0.8; stroke-linecap: square"/>
     </g>
     <g id="line2d_18">
      <g>
       <use xlink:href="#me16ba08157" x="29.2" y="168.930681" style="fill: #202a35; stroke: #202a35; stroke-width: 1.2"/>
      </g>
     </g>
     <g id="text_10">
      <text style="font-weight: 700; font-size: 12px; font-family: 'Times New Roman', 'Times', 'DejaVu Serif', serif; text-anchor: end; fill: #202a35" x="22.2" y="172.903806" transform="rotate(-0 22.2 172.903806)">0.6</text>
     </g>
    </g>
    <g id="ytick_5">
     <g id="line2d_19">
      <path d="M 29.2 105.188022 
L 783.24 105.188022 
" clip-path="url(#pf0e414eb36)" style="fill: none; stroke: #d9dee7; stroke-opacity: 0.55; stroke-width: 0.8; stroke-linecap: square"/>
     </g>
     <g id="line2d_20">
      <g>
       <use xlink:href="#me16ba08157" x="29.2" y="105.188022" style="fill: #202a35; stroke: #202a35; stroke-width: 1.2"/>
      </g>
     </g>
     <g id="text_11">
      <text style="font-weight: 700; font-size: 12px; font-family: 'Times New Roman', 'Times', 'DejaVu Serif', serif; text-anchor: end; fill: #202a35" x="22.2" y="109.161147" transform="rotate(-0 22.2 109.161147)">0.8</text>
     </g>
    </g>
    <g id="ytick_6">
     <g id="line2d_21">
      <path d="M 29.2 41.445363 
L 783.24 41.445363 
" clip-path="url(#pf0e414eb36)" style="fill: none; stroke: #d9dee7; stroke-opacity: 0.55; stroke-width: 0.8; stroke-linecap: square"/>
     </g>
     <g id="line2d_22">
      <g>
       <use xlink:href="#me16ba08157" x="29.2" y="41.445363" style="fill: #202a35; stroke: #202a35; stroke-width: 1.2"/>
      </g>
     </g>
     <g id="text_12">
      <text style="font-weight: 700; font-size: 12px; font-family: 'Times New Roman', 'Times', 'DejaVu Serif', serif; text-anchor: end; fill: #202a35" x="22.2" y="45.418488" transform="rotate(-0 22.2 45.418488)">1.0</text>
     </g>
    </g>
   </g>
   <g id="line2d_23">
    <path d="M 63.474545 265.208117 
L 139.640202 192.560535 
L 215.805859 138.421145 
L 368.137172 71.443311 
L 748.965455 41.445363 
" clip-path="url(#pf0e414eb36)" style="fill: none; stroke: #2b8c8c; stroke-width: 3; stroke-linecap: square"/>
    <defs>
     <path id="mb3811e653b" d="M 0 3.5 
C 0.928211 3.5 1.81853 3.131218 2.474874 2.474874 
C 3.131218 1.81853 3.5 0.928211 3.5 0 
C 3.5 -0.928211 3.131218 -1.81853 2.474874 -2.474874 
C 1.81853 -3.131218 0.928211 -3.5 0 -3.5 
C -0.928211 -3.5 -1.81853 -3.131218 -2.474874 -2.474874 
C -3.131218 -1.81853 -3.5 -0.928211 -3.5 0 
C -3.5 0.928211 -3.131218 1.81853 -2.474874 2.474874 
C -1.81853 3.131218 -0.928211 3.5 0 3.5 
z
" style="stroke: #2b8c8c"/>
    </defs>
    <g clip-path="url(#pf0e414eb36)">
     <use xlink:href="#mb3811e653b" x="63.474545" y="265.208117" style="fill: #2b8c8c; stroke: #2b8c8c"/>
     <use xlink:href="#mb3811e653b" x="139.640202" y="192.560535" style="fill: #2b8c8c; stroke: #2b8c8c"/>
     <use xlink:href="#mb3811e653b" x="215.805859" y="138.421145" style="fill: #2b8c8c; stroke: #2b8c8c"/>
     <use xlink:href="#mb3811e653b" x="368.137172" y="71.443311" style="fill: #2b8c8c; stroke: #2b8c8c"/>
     <use xlink:href="#mb3811e653b" x="748.965455" y="41.445363" style="fill: #2b8c8c; stroke: #2b8c8c"/>
    </g>
   </g>
   <g id="line2d_24">
    <path d="M 63.474545 265.208117 
L 139.640202 192.557166 
L 215.805859 138.493777 
L 368.137172 71.508177 
L 748.965455 41.445363 
" clip-path="url(#pf0e414eb36)" style="fill: none; stroke: #68707d; stroke-width: 3; stroke-linecap: square"/>
    <defs>
     <path id="m3b3ef669eb" d="M 0 3.5 
C 0.928211 3.5 1.81853 3.131218 2.474874 2.474874 
C 3.131218 1.81853 3.5 0.928211 3.5 0 
C 3.5 -0.928211 3.131218 -1.81853 2.474874 -2.474874 
C 1.81853 -3.131218 0.928211 -3.5 0 -3.5 
C -0.928211 -3.5 -1.81853 -3.131218 -2.474874 -2.474874 
C -3.131218 -1.81853 -3.5 -0.928211 -3.5 0 
C -3.5 0.928211 -3.131218 1.81853 -2.474874 2.474874 
C -1.81853 3.131218 -0.928211 3.5 0 3.5 
z
" style="stroke: #68707d"/>
    </defs>
    <g clip-path="url(#pf0e414eb36)">
     <use xlink:href="#m3b3ef669eb" x="63.474545" y="265.208117" style="fill: #68707d; stroke: #68707d"/>
     <use xlink:href="#m3b3ef669eb" x="139.640202" y="192.557166" style="fill: #68707d; stroke: #68707d"/>
     <use xlink:href="#m3b3ef669eb" x="215.805859" y="138.493777" style="fill: #68707d; stroke: #68707d"/>
     <use xlink:href="#m3b3ef669eb" x="368.137172" y="71.508177" style="fill: #68707d; stroke: #68707d"/>
     <use xlink:href="#m3b3ef669eb" x="748.965455" y="41.445363" style="fill: #68707d; stroke: #68707d"/>
    </g>
   </g>
   <g id="line2d_25">
    <path d="M 63.474545 328.583876 
L 139.640202 296.496256 
L 215.805859 264.276062 
L 368.137172 201.167158 
L 748.965455 41.445363 
" clip-path="url(#pf0e414eb36)" style="fill: none; stroke: #c99a4a; stroke-width: 3; stroke-linecap: square"/>
    <defs>
     <path id="m93a8d4e1fd" d="M 0 3.5 
C 0.928211 3.5 1.81853 3.131218 2.474874 2.474874 
C 3.131218 1.81853 3.5 0.928211 3.5 0 
C 3.5 -0.928211 3.131218 -1.81853 2.474874 -2.474874 
C 1.81853 -3.131218 0.928211 -3.5 0 -3.5 
C -0.928211 -3.5 -1.81853 -3.131218 -2.474874 -2.474874 
C -3.131218 -1.81853 -3.5 -0.928211 -3.5 0 
C -3.5 0.928211 -3.131218 1.81853 -2.474874 2.474874 
C -1.81853 3.131218 -0.928211 3.5 0 3.5 
z
" style="stroke: #c99a4a"/>
    </defs>
    <g clip-path="url(#pf0e414eb36)">
     <use xlink:href="#m93a8d4e1fd" x="63.474545" y="328.583876" style="fill: #c99a4a; stroke: #c99a4a"/>
     <use xlink:href="#m93a8d4e1fd" x="139.640202" y="296.496256" style="fill: #c99a4a; stroke: #c99a4a"/>
     <use xlink:href="#m93a8d4e1fd" x="215.805859" y="264.276062" style="fill: #c99a4a; stroke: #c99a4a"/>
     <use xlink:href="#m93a8d4e1fd" x="368.137172" y="201.167158" style="fill: #c99a4a; stroke: #c99a4a"/>
     <use xlink:href="#m93a8d4e1fd" x="748.965455" y="41.445363" style="fill: #c99a4a; stroke: #c99a4a"/>
    </g>
   </g>
   <g id="line2d_26">
    <path d="M 63.474545 265.208117 
L 139.640202 192.557166 
L 215.805859 138.421145 
L 368.137172 71.441336 
L 748.965455 41.445363 
" clip-path="url(#pf0e414eb36)" style="fill: none; stroke: #b75d69; stroke-width: 3; stroke-linecap: square"/>
    <defs>
     <path id="mec478f09d9" d="M 0 3.5 
C 0.928211 3.5 1.81853 3.131218 2.474874 2.474874 
C 3.131218 1.81853 3.5 0.928211 3.5 0 
C 3.5 -0.928211 3.131218 -1.81853 2.474874 -2.474874 
C 1.81853 -3.131218 0.928211 -3.5 0 -3.5 
C -0.928211 -3.5 -1.81853 -3.131218 -2.474874 -2.474874 
C -3.131218 -1.81853 -3.5 -0.928211 -3.5 0 
C -3.5 0.928211 -3.131218 1.81853 -2.474874 2.474874 
C -1.81853 3.131218 -0.928211 3.5 0 3.5 
z
" style="stroke: #b75d69"/>
    </defs>
    <g clip-path="url(#pf0e414eb36)">
     <use xlink:href="#mec478f09d9" x="63.474545" y="265.208117" style="fill: #b75d69; stroke: #b75d69"/>
     <use xlink:href="#mec478f09d9" x="139.640202" y="192.557166" style="fill: #b75d69; stroke: #b75d69"/>
     <use xlink:href="#mec478f09d9" x="215.805859" y="138.421145" style="fill: #b75d69; stroke: #b75d69"/>
     <use xlink:href="#mec478f09d9" x="368.137172" y="71.441336" style="fill: #b75d69; stroke: #b75d69"/>
     <use xlink:href="#mec478f09d9" x="748.965455" y="41.445363" style="fill: #b75d69; stroke: #b75d69"/>
    </g>
   </g>
   <g id="patch_3">
    <path d="M 29.2 360.158658 
L 29.2 25.509698 
" style="fill: none; stroke: #aeb7c2; stroke-width: 1.2; stroke-linejoin: miter; stroke-linecap: square"/>
   </g>
   <g id="patch_4">
    <path d="M 29.2 360.158658 
L 783.24 360.158658 
" style="fill: none; stroke: #aeb7c2; stroke-width: 1.2; stroke-linejoin: miter; stroke-linecap: square"/>
   </g>
   <g id="text_13">
    <text style="font-weight: 700; font-size: 13px; font-family: 'Times New Roman', 'Times', 'DejaVu Serif', serif; text-anchor: start; fill: #68707d" x="29.2" y="16.011562" transform="rotate(-0 29.2 16.011562)">Realized severity captured</text>
   </g>
   <g id="legend_1">
    <g id="line2d_27">
     <path d="M 40 40.509698 
L 52 40.509698 
L 64 40.509698 
" style="fill: none; stroke: #2b8c8c; stroke-width: 3; stroke-linecap: square"/>
     <g>
      <use xlink:href="#mb3811e653b" x="52" y="40.509698" style="fill: #2b8c8c; stroke: #2b8c8c"/>
     </g>
    </g>
    <g id="text_14">
     <text style="font-weight: 700; font-size: 12px; font-family: 'Times New Roman', 'Times', 'DejaVu Serif', serif; text-anchor: start" x="73.6" y="44.709698" transform="rotate(-0 73.6 44.709698)">VoltGuard</text>
    </g>
    <g id="line2d_28">
     <path d="M 40 57.476573 
L 52 57.476573 
L 64 57.476573 
" style="fill: none; stroke: #68707d; stroke-width: 3; stroke-linecap: square"/>
     <g>
      <use xlink:href="#m3b3ef669eb" x="52" y="57.476573" style="fill: #68707d; stroke: #68707d"/>
     </g>
    </g>
    <g id="text_15">
     <text style="font-weight: 700; font-size: 12px; font-family: 'Times New Roman', 'Times', 'DejaVu Serif', serif; text-anchor: start" x="73.6" y="61.676573" transform="rotate(-0 73.6 61.676573)">Boosting global</text>
    </g>
    <g id="line2d_29">
     <path d="M 176.618125 40.509698 
L 188.618125 40.509698 
L 200.618125 40.509698 
" style="fill: none; stroke: #c99a4a; stroke-width: 3; stroke-linecap: square"/>
     <g>
      <use xlink:href="#m93a8d4e1fd" x="188.618125" y="40.509698" style="fill: #c99a4a; stroke: #c99a4a"/>
     </g>
    </g>
    <g id="text_16">
     <text style="font-weight: 700; font-size: 12px; font-family: 'Times New Roman', 'Times', 'DejaVu Serif', serif; text-anchor: start" x="210.218125" y="44.709698" transform="rotate(-0 210.218125 44.709698)">Random budget</text>
    </g>
    <g id="line2d_30">
     <path d="M 176.618125 57.499073 
L 188.618125 57.499073 
L 200.618125 57.499073 
" style="fill: none; stroke: #b75d69; stroke-width: 3; stroke-linecap: square"/>
     <g>
      <use xlink:href="#mec478f09d9" x="188.618125" y="57.499073" style="fill: #b75d69; stroke: #b75d69"/>
     </g>
    </g>
    <g id="text_17">
     <text style="font-weight: 700; font-size: 12px; font-family: 'Times New Roman', 'Times', 'DejaVu Serif', serif; text-anchor: start" x="210.218125" y="61.699073" transform="rotate(-0 210.218125 61.699073)">Oracle severity</text>
    </g>
   </g>
  </g>
 </g>
 <defs>
  <clipPath id="pf0e414eb36">
   <rect x="29.2" y="25.509698" width="754.04" height="334.64896"/>
  </clipPath>
 </defs>
</svg>
